<?xml version="1.0" encoding="utf-8"?>
<!-- Generator: Adobe Illustrator 17.1.0, SVG Export Plug-In . SVG Version: 6.00 Build 0)  -->
<!DOCTYPE svg PUBLIC "-//W3C//DTD SVG 1.1//EN" "http://www.w3.org/Graphics/SVG/1.1/DTD/svg11.dtd">
<svg version="1.1" 
	id="Слой_1" 
	xmlns="http://www.w3.org/2000/svg" 
	xmlns:xlink="http://www.w3.org/1999/xlink" 
	x="0px" y="0px"
	viewBox="0 0 630.6 300.5" 
	enable-background="new 0 0 630.6 300.5" 
	xml:space="preserve">
<g>
	<path fill="#5B5B5B" d="M318.9,5c0.8,0.3,1.6,0.2,2.4,0.2c14.5,0.9,28.3,4.1,41.4,9.6c10.5,4.4,20.1,10.1,28.5,17.2
		c7.2,6,13.7,12.5,18.8,20c0.6,0.9,1.3,1.9,1.7,2.9c0.2,0.5,0.1,0.8-0.4,1c-3.1,1.3-6.3,2.5-9.5,3.4c-0.4,0.1-0.7,0-0.9-0.2
		c-0.3-0.4-0.6-0.7-0.9-1.1c-3.2-4.9-7.2-9.2-11.5-13.3c-8.7-8.2-18.6-15-30.1-20c-8.8-3.8-18.1-6.4-27.8-7.8
		c-6.9-1.1-13.9-1.5-20.9-1.2c-13.9,0.5-27.2,3.3-39.9,8.6c-10.8,4.5-20.4,10.5-28.8,17.9c-3.2,2.9-6.1,6-9,9.1
		c-0.6,0.6-1.2,1.2-1.9,1.7c-0.5,0.4-1.1,0.5-1.8,0.4c-2.9-0.5-5.9-0.7-8.8-1c-0.7-0.1-1.4-0.2-2.1-0.3c-0.5,0-0.6-0.1-0.3-0.5
		c1.5-2.1,3.2-4.1,4.8-6.1c1.6-2,3.5-3.8,5.2-5.7c1-1.1,1.9-2.4,3.2-3.2c1.3-0.9,2.1-2.2,3.5-2.9c0.3-0.1,0.4-0.4,0.6-0.6
		c0.6-0.7,1.4-1.1,2.2-1.7c1.4-1.1,2.8-2.2,4.2-3.3c14.3-10.5,30.6-17.4,48.9-20.8c6.1-1.1,12.2-1.8,18.4-2c0.1,0,0.3,0,0.4-0.1
		C311.9,5,315.4,5,318.9,5z"/>
	<path fill="#B21F29" d="M189.8,56.5c3.2-0.6,6.4-1.3,9.7-1.6c5.8-0.6,11.6-0.6,17.4-0.5c12.7,0.4,24.6,3.3,36,8
		c9.5,4,18.1,9.2,26.5,14.8c5.9,4,11.5,8.2,17.3,12.3c3.9,2.7,7.8,5.4,12.2,7.6c3.1,1.5,6.4,2.3,10,2.3c4.3,0,8.4-0.5,12.4-2
		c2-0.7,4-1.4,6.1-2c2.7-0.9,5.4-1.7,8.3-1.9c0.7-0.1,1.4-0.1,2.1-0.1c1.2-0.1,2.2,0.4,3.1,1.1c2.6,2,3.7,4.7,4.2,7.7
		c0.6,3.3,0.8,6.6,0.9,9.9c0,1,0,1.9-0.1,2.9c0,0.2,0,0.6-0.4,0.7c-0.3,0-0.5-0.3-0.6-0.5c-0.3-0.5-0.6-1.1-1-1.6
		c-1.3-2.4-3.2-4.2-5.8-5.5c-0.7-0.3-1.5-0.6-2.3-0.7c-1.8-0.2-2.9,0.3-3.6,1.8c-0.9,2-1.6,4.1-2.2,6.2c-1.5,5.3-3.3,10.6-6,15.6
		c-3.6,6.8-8.4,12.8-14.1,18.3c-7.5,7.2-16.1,13.2-25.5,18.5c-9.3,5.2-19,9.6-29,13.6c-0.2,0.1-0.4,0.2-0.8,0.1
		c0.2-0.3,0.4-0.6,0.7-0.8c2.3-2.3,4.8-4.5,7.1-6.9c6.3-6.5,11.7-13.5,15.6-21.4c2.1-4.3,3.5-8.7,3.8-13.3c0.5-7.3-2.1-13.8-7-19.6
		c-4.7-5.5-10.4-10.2-17-13.9c-8.3-4.7-17.1-8.6-26.3-11.7c-1-0.4-2.1-0.7-3.1-1.1c-0.3-0.1-0.7-0.2-0.9-0.6c0.9-0.2,1.7,0,2.6,0.1
		c5.6,0.7,11.1,1.7,16.7,2.7c3.6,0.6,7.2,1.4,10.8,2.2c0.4,0.1,0.8,0.1,1.1,0.2c0.2,0,0.4,0.1,0.5-0.1c0.1-0.2-0.1-0.3-0.3-0.4
		c-2-1.7-4.2-3-6.4-4.3c-8.9-5.2-18.4-9.3-28.3-12.8c-7.2-2.5-14.6-4.7-22.2-6.2c-2-0.4-4-0.7-6-1.1c-0.5-0.1-0.9-0.2-1.3-0.6
		c8.4-1.6,16.8-1.9,25.3-1.2c8.5,0.8,16.7,2.8,24.5,6c0-0.1,0.1-0.2,0.1-0.3C235.1,64.1,213.6,57.4,189.8,56.5z"/>
	<path fill="#5B5B5B" d="M199.8,105.5c0-4.3,0-8.5,0.4-12.8c0.5-4.6,1.6-9,3-13.4c0.3-1.1,0.7-2.2,1.1-3.3c0.6-1.5,1.3-1.9,3.1-1.6
		c2.7,0.4,5.4,0.9,8.1,1.6c1.3,0.3,1.3,0.4,1.1,1.6c-0.3,1.9-0.9,3.8-1.4,5.6c-1.3,4.7-2.1,9.4-2.6,14.2c-0.4,3.7-0.5,7.5-0.4,11.2
		c0.3,10.3,2.7,20.2,7.1,29.7c3.4,7.2,7.3,14.2,12.8,20.3c9.4,10.5,20.4,19.5,34.1,25.7c10,4.6,20.6,7.7,31.8,9.2
		c6.5,0.9,13,1.2,19.5,1c14.6-0.4,28.4-3.5,41.5-9.3c9-4,17-9.1,24.3-15.1c8.9-7.4,16-15.9,21.4-25.5c4.3-7.7,7.3-15.8,9-24.3
		c0.7-3.7,1-7.4,1.1-11.1c0.2-3.8,0.2-7.6-0.1-11.4c-0.1-2.1-0.5-4.1-0.8-6.2c-0.1-0.7,0-1.2,0.6-1.7c3-2.7,5.9-5.4,8.5-8.4
		c0.2-0.2,0.4-0.5,0.8-0.5c0.4,0.1,0.4,0.4,0.5,0.7c0.7,2.3,1.3,4.7,1.7,7.1c1.3,6.5,1.7,13.1,1.4,19.7
		c-0.8,15.1-4.9,29.4-12.7,42.8c-4.9,8.4-11.1,16.1-18.6,22.9c-14.2,13-31.1,22.1-50.7,27.3c-7.4,2-15,3.2-22.8,3.8
		c-7.8,0.6-15.7,0.4-23.5-0.4c-12.4-1.4-24.2-4.5-35.5-9.3c-7.1-3-13.8-6.6-20.1-10.8c-2.6-1.7-5-3.7-7.3-5.7
		c-4.7-4-9.2-8.1-13.4-12.6c-4.2-4.5-7.6-9.5-10.6-14.7c-3.4-5.8-6.4-11.7-8.4-18c-1.5-4.8-2.9-9.6-3.7-14.6c-0.5-3-0.6-6-0.6-9.1
		C199.7,108.6,199.8,107.1,199.8,105.5z"/>
	<path fill="#B21F29" d="M406.6,100.3c-1.8,1.9-3.7,3.7-5.7,5.5c-8.6,7.8-18.2,14.4-28.4,20.5c-11.5,6.9-23.5,12.9-35.9,18.4
		c-4.6,2-9.1,4.1-13.8,6c-0.5,0.2-1,0.4-1.6,0.5c0-0.5,0.4-0.8,0.7-1.2c1.5-1.5,3-3,4.4-4.6c7.8-8.7,12.8-18.6,15.7-29.4
		c0.5-1.8,0.9-3.6,1.6-5.4c0.5-1.5,1.3-1.8,2.9-1.1c2,0.9,3.5,2.3,5,3.7c1,1,2,2.1,2.7,3.3c0.4,0.6,0.8,1.2,1.3,1.7
		c0.3,0.3,0.5,0.3,0.7-0.1c0.4-1.1,0.6-2.2,0.8-3.4c0.5-3.2,0.7-6.5,0.6-9.7c-0.2-4-1.1-7.8-3.9-11.1c-1.1-1.3-1-1.3,0.4-2.2
		c6.1-3.7,11.6-8,16.9-12.5c6.4-5.2,13.2-10,20.9-13.6c4.3-2,8.8-3.5,13.2-5.1c8.1-2.9,16-6,23.4-9.9c5.3-2.8,10.2-6.1,14.7-9.9
		c0.8-0.7,1.7-1.4,2.8-1.9c0,0.6-0.3,1.1-0.5,1.5c-2.9,5.9-6.5,11.4-11,16.4c-8.6,9.6-18.6,18-29.4,25.7c-2,1.4-4.1,2.8-6.1,4.2
		c-0.5,0.4-1,0.7-1.4,1.2c0.6,0,1.1-0.2,1.6-0.4c3.9-1.6,7.6-3.5,11.3-5.4c4.6-2.4,9.2-4.9,13.4-7.8c0.5-0.3,1-0.7,1.6-0.9
		c0.1,0.4-0.1,0.7-0.3,1c-1.2,2-2.7,3.7-4.3,5.5c-3.1,3.5-6.4,6.9-10.1,10c-7.5,6.2-15.7,11.7-24.3,16.8c-0.9,0.6-1.9,1.1-2.7,1.8
		c-0.2,0.1-0.4,0.3-0.3,0.5c0.1,0.2,0.4,0.1,0.6,0c2.6-0.5,4.9-1.4,7.3-2.3c5-1.9,9.8-3.9,14.4-6.4
		C406.3,100.3,406.4,100.2,406.6,100.3L406.6,100.3z"/>
</g>
<text transform="matrix(1 0 0 1 0.5759 277.6255)" fill="#5B5B5B" font-family="'BookmanOldStyle'" font-size="72">Точёный Алексей</text>
</svg>
